<svg version="1.1" id="Layer_1" xmlns="http://www.w3.org/2000/svg" xmlns:xlink="http://www.w3.org/1999/xlink" x="0px" y="0px" width="100%" viewBox="0 0 1280 720" enable-background="new 0 0 1280 720" xml:space="preserve">

<path fill="#FB0808" opacity="1.000000" stroke="none" d="
M550.065369,242.910080 
	C557.343872,243.940140 564.618042,245.001434 571.901855,245.992493 
	C581.469055,247.294205 591.038757,248.580185 600.616760,249.799103 
	C609.397400,250.916550 618.185669,251.978455 626.979736,252.984711 
	C633.666443,253.749802 640.368347,254.381622 647.062073,255.086060 
	C662.609802,256.722321 678.177185,258.195251 693.697815,260.057404 
	C708.319763,261.811707 722.872192,264.144073 737.493652,265.902588 
	C746.003479,266.926056 754.610474,267.122406 763.134521,268.051392 
	C773.055115,269.132538 782.925598,270.665497 792.831238,271.894684 
	C801.782837,273.005524 810.763916,273.881744 819.711365,275.022858 
	C831.721741,276.554596 843.694824,278.391663 855.718750,279.800171 
	C861.955200,280.530670 868.294128,280.370483 874.537842,281.057678 
	C884.294556,282.131470 894.003601,283.631104 903.744141,284.860565 
	C912.528381,285.969330 921.334106,286.907257 930.118774,288.012268 
	C940.022644,289.257996 949.915039,290.595093 959.809204,291.916870 
	C962.722290,292.306061 967.155212,291.816498 968.173096,293.437134 
	C969.704834,295.875977 969.107849,299.830292 968.951904,303.118286 
	C968.412537,314.491302 967.546082,325.849640 967.083130,337.224915 
	C966.937378,340.805542 968.042969,344.433014 967.936523,348.020050 
	C967.405945,365.890778 966.663391,383.755219 965.992188,401.621735 
	C965.885376,404.465332 964.878601,405.807037 961.563416,406.114014 
	C946.540771,407.505188 931.565552,409.399200 916.554565,410.928772 
	C905.104858,412.095459 893.613342,412.854645 882.166809,414.048401 
	C874.742920,414.822632 867.375183,416.120300 859.966675,417.060486 
	C851.676453,418.112549 843.372864,419.063477 835.067505,419.990570 
	C823.004211,421.337097 810.938232,422.661804 798.865479,423.919891 
	C791.508240,424.686523 784.123413,425.197937 776.774048,426.028046 
	C768.336487,426.981049 759.930176,428.207672 751.499573,429.226349 
	C743.361633,430.209717 735.211975,431.098022 727.063843,431.995178 
	C714.998779,433.323578 702.935303,434.668640 690.861938,435.917908 
	C683.338867,436.696320 675.786377,437.197571 668.269897,438.029327 
	C659.665771,438.981445 651.090027,440.186737 642.496216,441.235962 
	C634.688354,442.189209 626.878418,443.132233 619.059387,443.987671 
	C606.663513,445.343842 594.265015,446.680573 581.856567,447.914459 
	C573.835693,448.712067 565.799316,449.367004 557.760986,449.967316 
	C555.207397,450.158020 552.625305,449.966797 550.407715,449.325989 
	C550.838928,446.713806 551.004944,444.725098 550.985596,442.738220 
	C550.357849,378.184082 549.702698,313.630188 549.113953,249.075699 
	C549.095276,247.023560 549.733398,244.965424 550.065369,242.910080 
M683.807251,327.155396 
	C681.574951,354.969513 679.342590,382.783630 677.064941,411.162292 
	C683.325439,410.585602 689.033691,410.059814 695.026978,409.507751 
	C696.418762,392.461334 697.781494,375.771057 699.136780,359.171661 
	C713.230408,357.927277 716.938354,361.578094 715.763184,375.012238 
	C715.690674,375.841217 715.509216,376.662079 715.461548,377.491516 
	C714.965454,386.129761 714.409546,394.765869 714.060120,403.410248 
	C713.979065,405.415283 713.726257,408.012665 717.341125,407.547638 
	C722.429688,406.892914 727.549500,406.481110 731.755554,406.056366 
	C732.299500,396.178711 732.610046,386.770630 733.388245,377.401398 
	C734.284363,366.611755 735.082458,356.007324 724.440002,348.881592 
	C732.178772,343.254486 735.602417,338.432617 736.714905,329.867737 
	C737.612732,322.955292 738.052124,315.924744 737.963196,308.955933 
	C737.815308,297.362305 730.638611,288.961578 719.199036,287.126434 
	C708.732727,285.447388 698.150940,284.488556 687.160034,283.156586 
	C686.046753,297.736481 684.959106,311.980927 683.807251,327.155396 
M932.488525,387.776367 
	C934.640686,387.548767 936.823853,386.973724 938.938843,387.162384 
	C944.119019,387.624451 945.697571,385.309570 945.961426,380.345215 
	C946.624268,367.874908 947.846802,355.434937 948.798889,342.979279 
	C949.583862,332.710480 950.302795,322.436676 951.070496,311.897797 
	C942.675842,310.885315 934.648376,309.917114 926.499512,308.934296 
	C921.096558,327.356964 915.830627,345.312317 910.564697,363.267700 
	C909.329468,362.477753 909.170959,361.882935 909.086426,361.277771 
	C906.690735,344.135284 904.355530,326.983887 901.813171,309.863251 
	C901.607239,308.476501 900.127380,306.342224 899.005127,306.180389 
	C891.792175,305.140106 884.513794,304.553253 876.703125,303.761292 
	C874.345093,333.771667 872.019714,363.366119 869.660217,393.394836 
	C875.313293,392.861206 880.214722,392.398499 885.342773,391.914429 
	C886.870789,372.903076 888.369263,354.258484 889.867798,335.613892 
	C890.160950,335.622986 890.454102,335.632080 890.747192,335.641174 
	C893.412903,353.989471 896.078613,372.337738 898.761353,390.803162 
	C903.569824,390.363037 907.692322,389.728302 911.820557,389.688446 
	C915.188416,389.655945 916.246216,388.005066 917.064087,385.085205 
	C920.649841,372.285004 924.450195,359.544739 928.207581,346.792999 
	C929.192444,343.450562 930.302612,340.145081 931.355225,336.822632 
	C931.650940,336.894287 931.946594,336.965912 932.242310,337.037567 
	C930.936279,353.889893 929.630249,370.742249 928.305603,387.834839 
	C929.674561,387.834839 930.644104,387.834839 932.488525,387.776367 
M596.123474,340.353607 
	C593.034546,335.819366 589.761047,331.398254 586.897339,326.726013 
	C581.841858,318.477814 581.091675,309.485931 583.253784,300.226562 
	C584.539124,294.721924 587.922546,292.188904 592.748840,292.628571 
	C597.090820,293.024078 599.742065,296.252533 600.000305,301.841766 
	C600.174194,305.604858 600.033447,309.382477 600.033447,313.590027 
	C605.630859,313.590027 610.875793,313.590027 617.355347,313.590027 
	C616.778320,306.132538 616.915771,298.601929 615.474854,291.386475 
	C613.090210,279.444824 604.323608,272.241089 592.941467,271.515625 
	C581.282349,270.772583 572.542358,276.084320 568.431274,287.938446 
	C561.491455,307.948517 561.945129,327.543243 574.245117,345.735657 
	C578.717590,352.350677 583.583557,358.700836 588.018127,365.340027 
	C593.307556,373.259216 594.380920,382.022156 592.113098,391.163330 
	C590.461975,397.818817 586.351624,401.037140 580.990173,400.285065 
	C576.261719,399.621796 574.132446,395.898071 574.437439,388.565582 
	C574.607178,384.484436 574.948059,380.410431 575.190308,376.664856 
	C569.226318,376.664856 563.849121,376.664856 558.013000,376.664856 
	C558.013000,385.276337 557.367737,393.306671 558.147827,401.196045 
	C559.751221,417.412079 571.013733,424.703247 586.726013,420.508911 
	C599.245789,417.166870 605.660339,408.134430 608.911499,396.432526 
	C614.642700,375.803894 610.428589,357.254974 596.123474,340.353607 
M800.159180,392.720581 
	C799.678589,395.038177 799.197998,397.355774 798.643860,400.027893 
	C803.234375,399.605652 807.194336,398.947021 811.149780,398.973053 
	C814.177185,398.992981 815.205322,397.621918 815.794739,395.037445 
	C816.928528,390.065430 818.236572,385.133087 819.516846,380.006226 
	C826.938660,379.589478 834.027832,379.191376 841.425964,378.775909 
	C842.103699,384.729675 842.732544,390.254486 843.383667,395.974335 
	C849.561035,395.366821 855.272461,394.805115 861.444641,394.198120 
	C857.789612,362.755920 854.206970,331.936829 850.599304,300.902161 
	C841.812622,300.029968 833.415649,299.196503 824.495850,298.311096 
	C816.447144,329.573517 808.423157,360.739868 800.159180,392.720581 
M780.099365,293.390930 
	C770.879028,292.408356 761.658630,291.425812 751.959839,290.392242 
	C748.943970,328.708466 745.948730,366.762604 742.925415,405.173523 
	C759.715637,403.561554 775.736450,402.023438 791.896545,400.471954 
	C792.349548,395.303925 792.763428,390.582336 793.199951,385.602600 
	C782.429077,386.211151 772.396118,386.777985 762.182312,387.355072 
	C763.073181,376.183167 763.904358,365.759064 764.775452,354.835327 
	C773.045288,354.835327 780.972107,354.835327 789.270203,354.835327 
	C789.653625,349.612518 790.000000,344.893921 790.358704,340.007507 
	C781.853638,339.577545 773.970764,339.179016 765.983643,338.775208 
	C766.850952,328.250519 767.678040,318.213745 768.518127,308.019379 
	C778.993225,308.818176 788.881104,309.572174 799.032593,310.346313 
	C799.463928,305.128235 799.843384,300.538208 800.251587,295.599792 
	C793.510620,294.884644 787.250549,294.220520 780.099365,293.390930 
M627.633789,276.921631 
	C626.572449,277.568451 624.671204,278.117950 624.583130,278.877625 
	C623.904297,284.734680 623.576599,290.632507 623.142212,296.487823 
	C629.622620,297.093262 635.486755,297.641113 641.596802,298.211945 
	C638.522949,337.537231 635.507263,376.117615 632.455261,415.163269 
	C637.074585,414.736938 641.028137,414.008057 644.960632,414.107788 
	C649.209839,414.215607 650.666565,412.737457 650.968201,408.438354 
	C652.879272,381.202728 655.054626,353.985504 657.176880,326.764893 
	C657.872375,317.843964 658.669434,308.930969 659.465027,299.479309 
	C665.744873,299.910339 671.643005,300.315186 677.920166,300.746033 
	C678.382202,294.620361 678.836365,288.599213 679.304443,282.393066 
	C661.922913,280.542419 645.235657,278.765717 627.633789,276.921631 
z" data-index="1" style="visibility: visible; opacity: 1;"></path>
<path fill="#FFFDFD" opacity="1.000000" stroke="none" d="
M550.030151,242.512329 
	C549.733398,244.965424 549.095276,247.023560 549.113953,249.075699 
	C549.702698,313.630188 550.357849,378.184082 550.985596,442.738220 
	C551.004944,444.725098 550.838928,446.713806 550.379395,448.933899 
	C543.532959,447.443451 536.992676,445.954041 530.618164,443.940033 
	C522.288452,441.308319 514.108521,438.206177 505.829224,435.409698 
	C498.287811,432.862488 490.668030,430.545746 483.139252,427.962860 
	C469.502197,423.284363 455.940613,418.384216 442.280975,413.773773 
	C435.041046,411.330170 427.628113,409.403412 420.354218,407.054626 
	C413.716675,404.911346 407.178864,402.461182 400.564270,400.244171 
	C395.129944,398.422791 389.626648,396.807312 384.190613,394.990845 
	C373.294983,391.350037 362.430603,387.615875 351.541351,383.955811 
	C344.366882,381.544373 337.171570,379.195038 328.997101,376.490906 
	C328.997101,360.103699 328.997131,343.858978 328.997131,327.614258 
	C328.997131,315.283508 329.298096,302.941864 328.852417,290.627258 
	C328.668121,285.536194 331.283875,284.640442 335.101074,283.979828 
	C344.962585,282.273285 354.818024,280.527863 364.657562,278.699280 
	C376.392120,276.518463 388.149414,274.430908 399.819122,271.938934 
	C410.777802,269.598816 421.594696,266.596405 432.549530,264.236053 
	C441.858612,262.230255 451.278320,260.740112 460.643616,258.992432 
	C469.534210,257.333374 478.418732,255.641479 487.304138,253.954544 
	C501.257324,251.305496 515.234070,248.771393 529.149841,245.938293 
	C535.255676,244.695236 541.223022,242.781799 547.289001,241.321274 
	C548.081360,241.130493 549.087646,241.828323 550.030151,242.512329 
M488.940582,311.595428 
	C490.667908,343.164978 492.370575,374.735931 494.211456,406.298859 
	C494.286316,407.581848 495.414612,409.554016 496.477631,409.900818 
	C501.475891,411.531464 506.622955,412.706146 512.387268,414.219574 
	C511.461853,396.596680 510.567291,379.562286 509.654083,362.172394 
	C511.929504,362.501801 513.528137,362.762451 515.134399,362.961304 
	C532.938049,365.165344 540.555420,360.006500 542.251953,342.009399 
	C543.350220,330.359070 542.157837,318.428955 541.256897,306.680542 
	C540.794067,300.643982 539.386780,294.477203 537.229492,288.817841 
	C533.416382,278.814514 526.002380,274.224091 515.424683,274.925537 
	C506.025726,275.548798 496.674713,276.895966 486.953186,277.961945 
	C487.619537,289.096802 488.264252,299.870331 488.940582,311.595428 
M346.039490,325.407288 
	C349.986786,328.712616 353.917267,332.038330 357.885803,335.317963 
	C362.625671,339.235046 367.891815,342.663910 371.983093,347.164978 
	C374.717529,350.173279 376.452667,354.521484 377.448761,358.562500 
	C378.547974,363.021759 375.833221,365.401306 371.203949,365.270233 
	C363.077301,365.040161 359.367096,361.462067 358.863800,353.411072 
	C358.782898,352.116943 358.576111,350.830658 358.405853,349.352722 
	C352.853821,348.487915 347.517578,347.656708 341.938171,346.787628 
	C341.368622,354.947021 343.570435,361.565125 349.219269,366.641754 
	C358.509399,374.990753 369.629425,379.044739 382.063690,379.002014 
	C389.266479,378.977264 393.884094,374.690063 395.121643,367.643738 
	C396.777802,358.213837 394.679321,349.432220 388.140778,342.620850 
	C382.199219,336.431427 374.903015,331.565674 368.572784,325.717255 
	C364.859863,322.286987 361.067688,318.497467 358.758545,314.108093 
	C356.018921,308.900452 358.537842,304.281311 363.392548,303.025299 
	C370.392212,301.214325 374.551636,303.550293 375.683624,309.960968 
	C375.908295,311.233276 376.005341,312.528107 376.166718,313.857605 
	C381.781738,313.857605 387.195374,313.857605 392.600494,313.857605 
	C392.626556,297.575958 384.097046,289.096222 368.541168,290.096802 
	C364.116272,290.381439 359.608185,291.337006 355.405945,292.769928 
	C339.348816,298.245178 335.457275,311.276703 346.039490,325.407288 
M423.909546,363.601257 
	C422.404510,337.587860 420.899506,311.574493 419.375549,285.233978 
	C413.174438,285.957062 407.646271,286.601654 402.188293,287.238068 
	C402.042450,288.197510 401.882751,288.683380 401.908478,289.159180 
	C403.617706,320.738708 405.320282,352.318726 407.156708,383.890930 
	C407.219635,384.973236 408.455017,386.642609 409.452484,386.917145 
	C424.462738,391.048401 439.524841,394.991333 455.157593,399.132935 
	C454.794159,393.150940 454.466095,387.751312 454.137695,382.346558 
	C447.690979,381.048553 441.839233,379.857697 435.982117,378.693665 
	C424.281952,376.368500 424.280731,376.374603 423.909546,363.601257 
M460.618530,355.975159 
	C461.392548,369.780914 462.110779,383.590332 463.019562,397.387238 
	C463.119720,398.907928 463.991913,401.326263 465.050171,401.674408 
	C470.163422,403.356812 475.462830,404.473328 481.240143,405.927399 
	C478.837708,363.354675 476.467651,321.355469 474.088379,279.193359 
	C467.816345,279.944946 462.261444,280.610565 456.394989,281.313538 
	C457.791199,306.191925 459.161926,330.615814 460.618530,355.975159 
z" data-index="2" style="visibility: visible; opacity: 1;"></path>
<path fill="#FFFBFB" opacity="1.000000" stroke="none" d="
M683.839355,326.690399 
	C684.959106,311.980927 686.046753,297.736481 687.160034,283.156586 
	C698.150940,284.488556 708.732727,285.447388 719.199036,287.126434 
	C730.638611,288.961578 737.815308,297.362305 737.963196,308.955933 
	C738.052124,315.924744 737.612732,322.955292 736.714905,329.867737 
	C735.602417,338.432617 732.178772,343.254486 724.440002,348.881592 
	C735.082458,356.007324 734.284363,366.611755 733.388245,377.401398 
	C732.610046,386.770630 732.299500,396.178711 731.755554,406.056366 
	C727.549500,406.481110 722.429688,406.892914 717.341125,407.547638 
	C713.726257,408.012665 713.979065,405.415283 714.060120,403.410248 
	C714.409546,394.765869 714.965454,386.129761 715.461548,377.491516 
	C715.509216,376.662079 715.690674,375.841217 715.763184,375.012238 
	C716.938354,361.578094 713.230408,357.927277 699.136780,359.171661 
	C697.781494,375.771057 696.418762,392.461334 695.026978,409.507751 
	C689.033691,410.059814 683.325439,410.585602 677.064941,411.162292 
	C679.342590,382.783630 681.574951,354.969513 683.839355,326.690399 
M705.379028,341.167572 
	C713.767578,341.151245 717.379272,339.280151 718.407104,332.797150 
	C719.518250,325.788971 719.991394,318.585602 719.730652,311.504700 
	C719.638916,309.014038 717.053162,305.550232 714.710693,304.466553 
	C711.499023,302.980774 707.434265,303.339081 703.442932,302.872955 
	C702.445496,316.018127 701.509705,328.351135 700.537231,341.167328 
	C702.174072,341.167328 703.297424,341.167328 705.379028,341.167572 
z" data-index="3" style="visibility: visible; opacity: 1;"></path>
<path fill="#FFFBFB" opacity="1.000000" stroke="none" d="
M932.051147,387.805603 
	C930.644104,387.834839 929.674561,387.834839 928.305603,387.834839 
	C929.630249,370.742249 930.936279,353.889893 932.242310,337.037567 
	C931.946594,336.965912 931.650940,336.894287 931.355225,336.822632 
	C930.302612,340.145081 929.192444,343.450562 928.207581,346.792999 
	C924.450195,359.544739 920.649841,372.285004 917.064087,385.085205 
	C916.246216,388.005066 915.188416,389.655945 911.820557,389.688446 
	C907.692322,389.728302 903.569824,390.363037 898.761353,390.803162 
	C896.078613,372.337738 893.412903,353.989471 890.747192,335.641174 
	C890.454102,335.632080 890.160950,335.622986 889.867798,335.613892 
	C888.369263,354.258484 886.870789,372.903076 885.342773,391.914429 
	C880.214722,392.398499 875.313293,392.861206 869.660217,393.394836 
	C872.019714,363.366119 874.345093,333.771667 876.703125,303.761292 
	C884.513794,304.553253 891.792175,305.140106 899.005127,306.180389 
	C900.127380,306.342224 901.607239,308.476501 901.813171,309.863251 
	C904.355530,326.983887 906.690735,344.135284 909.086426,361.277771 
	C909.170959,361.882935 909.329468,362.477753 910.564697,363.267700 
	C915.830627,345.312317 921.096558,327.356964 926.499512,308.934296 
	C934.648376,309.917114 942.675842,310.885315 951.070496,311.897797 
	C950.302795,322.436676 949.583862,332.710480 948.798889,342.979279 
	C947.846802,355.434937 946.624268,367.874908 945.961426,380.345215 
	C945.697571,385.309570 944.119019,387.624451 938.938843,387.162384 
	C936.823853,386.973724 934.640686,387.548767 932.051147,387.805603 
z" data-index="4" style="visibility: visible; opacity: 1;"></path>
<path fill="#FFFBFB" opacity="1.000000" stroke="none" d="
M596.347290,340.634216 
	C610.428589,357.254974 614.642700,375.803894 608.911499,396.432526 
	C605.660339,408.134430 599.245789,417.166870 586.726013,420.508911 
	C571.013733,424.703247 559.751221,417.412079 558.147827,401.196045 
	C557.367737,393.306671 558.013000,385.276337 558.013000,376.664856 
	C563.849121,376.664856 569.226318,376.664856 575.190308,376.664856 
	C574.948059,380.410431 574.607178,384.484436 574.437439,388.565582 
	C574.132446,395.898071 576.261719,399.621796 580.990173,400.285065 
	C586.351624,401.037140 590.461975,397.818817 592.113098,391.163330 
	C594.380920,382.022156 593.307556,373.259216 588.018127,365.340027 
	C583.583557,358.700836 578.717590,352.350677 574.245117,345.735657 
	C561.945129,327.543243 561.491455,307.948517 568.431274,287.938446 
	C572.542358,276.084320 581.282349,270.772583 592.941467,271.515625 
	C604.323608,272.241089 613.090210,279.444824 615.474854,291.386475 
	C616.915771,298.601929 616.778320,306.132538 617.355347,313.590027 
	C610.875793,313.590027 605.630859,313.590027 600.033447,313.590027 
	C600.033447,309.382477 600.174194,305.604858 600.000305,301.841766 
	C599.742065,296.252533 597.090820,293.024078 592.748840,292.628571 
	C587.922546,292.188904 584.539124,294.721924 583.253784,300.226562 
	C581.091675,309.485931 581.841858,318.477814 586.897339,326.726013 
	C589.761047,331.398254 593.034546,335.819366 596.347290,340.634216 
z" data-index="5" style="visibility: visible; opacity: 1;"></path>
<path fill="#FFFBFB" opacity="1.000000" stroke="none" d="
M800.279175,392.313385 
	C808.423157,360.739868 816.447144,329.573517 824.495850,298.311096 
	C833.415649,299.196503 841.812622,300.029968 850.599304,300.902161 
	C854.206970,331.936829 857.789612,362.755920 861.444641,394.198120 
	C855.272461,394.805115 849.561035,395.366821 843.383667,395.974335 
	C842.732544,390.254486 842.103699,384.729675 841.425964,378.775909 
	C834.027832,379.191376 826.938660,379.589478 819.516846,380.006226 
	C818.236572,385.133087 816.928528,390.065430 815.794739,395.037445 
	C815.205322,397.621918 814.177185,398.992981 811.149780,398.973053 
	C807.194336,398.947021 803.234375,399.605652 798.643860,400.027893 
	C799.197998,397.355774 799.678589,395.038177 800.279175,392.313385 
M829.952881,338.418640 
	C827.633545,347.637207 825.314148,356.855804 823.022766,365.963318 
	C829.044128,365.963318 834.441895,365.963318 840.063416,365.963318 
	C839.314758,357.814575 838.644958,350.219604 837.911926,342.630737 
	C837.171875,334.969818 836.369141,327.314911 835.593872,319.657379 
	C835.318909,319.616760 835.043945,319.576172 834.768982,319.535583 
	C833.206299,325.557434 831.643616,331.579285 829.952881,338.418640 
z" data-index="6" style="visibility: visible; opacity: 1;"></path>
<path fill="#FFFBFB" opacity="1.000000" stroke="none" d="
M780.544922,293.473663 
	C787.250549,294.220520 793.510620,294.884644 800.251587,295.599792 
	C799.843384,300.538208 799.463928,305.128235 799.032593,310.346313 
	C788.881104,309.572174 778.993225,308.818176 768.518127,308.019379 
	C767.678040,318.213745 766.850952,328.250519 765.983643,338.775208 
	C773.970764,339.179016 781.853638,339.577545 790.358704,340.007507 
	C790.000000,344.893921 789.653625,349.612518 789.270203,354.835327 
	C780.972107,354.835327 773.045288,354.835327 764.775452,354.835327 
	C763.904358,365.759064 763.073181,376.183167 762.182312,387.355072 
	C772.396118,386.777985 782.429077,386.211151 793.199951,385.602600 
	C792.763428,390.582336 792.349548,395.303925 791.896545,400.471954 
	C775.736450,402.023438 759.715637,403.561554 742.925415,405.173523 
	C745.948730,366.762604 748.943970,328.708466 751.959839,290.392242 
	C761.658630,291.425812 770.879028,292.408356 780.544922,293.473663 
z" data-index="7" style="visibility: visible; opacity: 1;"></path>
<path fill="#FFFBFB" opacity="1.000000" stroke="none" d="
M628.091125,276.955322 
	C645.235657,278.765717 661.922913,280.542419 679.304443,282.393066 
	C678.836365,288.599213 678.382202,294.620361 677.920166,300.746033 
	C671.643005,300.315186 665.744873,299.910339 659.465027,299.479309 
	C658.669434,308.930969 657.872375,317.843964 657.176880,326.764893 
	C655.054626,353.985504 652.879272,381.202728 650.968201,408.438354 
	C650.666565,412.737457 649.209839,414.215607 644.960632,414.107788 
	C641.028137,414.008057 637.074585,414.736938 632.455261,415.163269 
	C635.507263,376.117615 638.522949,337.537231 641.596802,298.211945 
	C635.486755,297.641113 629.622620,297.093262 623.142212,296.487823 
	C623.576599,290.632507 623.904297,284.734680 624.583130,278.877625 
	C624.671204,278.117950 626.572449,277.568451 628.091125,276.955322 
z" data-index="8" style="visibility: visible; opacity: 1;"></path>
<path fill="#FB0909" opacity="1.000000" stroke="none" d="
M488.924774,311.119629 
	C488.264252,299.870331 487.619537,289.096802 486.953186,277.961945 
	C496.674713,276.895966 506.025726,275.548798 515.424683,274.925537 
	C526.002380,274.224091 533.416382,278.814514 537.229492,288.817841 
	C539.386780,294.477203 540.794067,300.643982 541.256897,306.680542 
	C542.157837,318.428955 543.350220,330.359070 542.251953,342.009399 
	C540.555420,360.006500 532.938049,365.165344 515.134399,362.961304 
	C513.528137,362.762451 511.929504,362.501801 509.654083,362.172394 
	C510.567291,379.562286 511.461853,396.596680 512.387268,414.219574 
	C506.622955,412.706146 501.475891,411.531464 496.477631,409.900818 
	C495.414612,409.554016 494.286316,407.581848 494.211456,406.298859 
	C492.370575,374.735931 490.667908,343.164978 488.924774,311.119629 
M525.028809,333.215240 
	C524.657654,325.401855 524.288330,317.588348 523.914856,309.775085 
	C523.280823,296.511047 519.789001,293.717682 506.665680,295.980499 
	C506.528870,296.004120 506.412354,296.145172 505.936432,296.470886 
	C506.699615,310.851013 507.454193,325.455139 508.304047,340.053741 
	C508.351624,340.870972 508.989258,341.993286 509.683319,342.381104 
	C516.857544,346.390289 524.184143,342.402893 525.028809,333.215240 
z" data-index="9" style="visibility: visible; opacity: 1;"></path>
<path fill="#FB0A0A" opacity="1.000000" stroke="none" d="
M345.812134,325.127075 
	C335.457275,311.276703 339.348816,298.245178 355.405945,292.769928 
	C359.608185,291.337006 364.116272,290.381439 368.541168,290.096802 
	C384.097046,289.096222 392.626556,297.575958 392.600494,313.857605 
	C387.195374,313.857605 381.781738,313.857605 376.166718,313.857605 
	C376.005341,312.528107 375.908295,311.233276 375.683624,309.960968 
	C374.551636,303.550293 370.392212,301.214325 363.392548,303.025299 
	C358.537842,304.281311 356.018921,308.900452 358.758545,314.108093 
	C361.067688,318.497467 364.859863,322.286987 368.572784,325.717255 
	C374.903015,331.565674 382.199219,336.431427 388.140778,342.620850 
	C394.679321,349.432220 396.777802,358.213837 395.121643,367.643738 
	C393.884094,374.690063 389.266479,378.977264 382.063690,379.002014 
	C369.629425,379.044739 358.509399,374.990753 349.219269,366.641754 
	C343.570435,361.565125 341.368622,354.947021 341.938171,346.787628 
	C347.517578,347.656708 352.853821,348.487915 358.405853,349.352722 
	C358.576111,350.830658 358.782898,352.116943 358.863800,353.411072 
	C359.367096,361.462067 363.077301,365.040161 371.203949,365.270233 
	C375.833221,365.401306 378.547974,363.021759 377.448761,358.562500 
	C376.452667,354.521484 374.717529,350.173279 371.983093,347.164978 
	C367.891815,342.663910 362.625671,339.235046 357.885803,335.317963 
	C353.917267,332.038330 349.986786,328.712616 345.812134,325.127075 
z" data-index="10" style="visibility: visible; opacity: 1;"></path>
<path fill="#FB0A0A" opacity="1.000000" stroke="none" d="
M423.928101,364.079041 
	C424.280731,376.374603 424.281952,376.368500 435.982117,378.693665 
	C441.839233,379.857697 447.690979,381.048553 454.137695,382.346558 
	C454.466095,387.751312 454.794159,393.150940 455.157593,399.132935 
	C439.524841,394.991333 424.462738,391.048401 409.452484,386.917145 
	C408.455017,386.642609 407.219635,384.973236 407.156708,383.890930 
	C405.320282,352.318726 403.617706,320.738708 401.908478,289.159180 
	C401.882751,288.683380 402.042450,288.197510 402.188293,287.238068 
	C407.646271,286.601654 413.174438,285.957062 419.375549,285.233978 
	C420.899506,311.574493 422.404510,337.587860 423.928101,364.079041 
z" data-index="11" style="visibility: visible; opacity: 1;"></path>
<path fill="#FB0A0A" opacity="1.000000" stroke="none" d="
M460.575562,355.507416 
	C459.161926,330.615814 457.791199,306.191925 456.394989,281.313538 
	C462.261444,280.610565 467.816345,279.944946 474.088379,279.193359 
	C476.467651,321.355469 478.837708,363.354675 481.240143,405.927399 
	C475.462830,404.473328 470.163422,403.356812 465.050171,401.674408 
	C463.991913,401.326263 463.119720,398.907928 463.019562,397.387238 
	C462.110779,383.590332 461.392548,369.780914 460.575562,355.507416 
z" data-index="12" style="visibility: visible; opacity: 1;"></path>
<path fill="#FB0A0A" opacity="1.000000" stroke="none" d="
M704.899902,341.167450 
	C703.297424,341.167328 702.174072,341.167328 700.537231,341.167328 
	C701.509705,328.351135 702.445496,316.018127 703.442932,302.872955 
	C707.434265,303.339081 711.499023,302.980774 714.710693,304.466553 
	C717.053162,305.550232 719.638916,309.014038 719.730652,311.504700 
	C719.991394,318.585602 719.518250,325.788971 718.407104,332.797150 
	C717.379272,339.280151 713.767578,341.151245 704.899902,341.167450 
z" data-index="13" style="visibility: visible; opacity: 1;"></path>
<path fill="#FB0E0E" opacity="1.000000" stroke="none" d="
M830.016907,338.009888 
	C831.643616,331.579285 833.206299,325.557434 834.768982,319.535583 
	C835.043945,319.576172 835.318909,319.616760 835.593872,319.657379 
	C836.369141,327.314911 837.171875,334.969818 837.911926,342.630737 
	C838.644958,350.219604 839.314758,357.814575 840.063416,365.963318 
	C834.441895,365.963318 829.044128,365.963318 823.022766,365.963318 
	C825.314148,356.855804 827.633545,347.637207 830.016907,338.009888 
z" data-index="14" style="visibility: visible;"></path>
<path fill="#FFFAFA" opacity="1.000000" stroke="none" d="
M525.020386,333.670624 
	C524.184143,342.402893 516.857544,346.390289 509.683319,342.381104 
	C508.989258,341.993286 508.351624,340.870972 508.304047,340.053741 
	C507.454193,325.455139 506.699615,310.851013 505.936432,296.470886 
	C506.412354,296.145172 506.528870,296.004120 506.665680,295.980499 
	C519.789001,293.717682 523.280823,296.511047 523.914856,309.775085 
	C524.288330,317.588348 524.657654,325.401855 525.020386,333.670624 
z" data-index="15" style="visibility: visible; opacity: 1;"></path>
</svg>